<svg xmlns="http://www.w3.org/2000/svg" width="640" height="360" viewBox="0 0 640 360" role="img" aria-label="Heap Visualizer Icon">
  <defs>
    <linearGradient id="bg" x1="0" y1="0" x2="1" y2="1">
      <stop offset="0%" stop-color="#0b1226"/>
      <stop offset="100%" stop-color="#0f172a"/>
    </linearGradient>
  </defs>
  <rect width="640" height="360" fill="url(#bg)"/>
  <g stroke="#334155" stroke-width="4" opacity="0.9">
    <line x1="320" y1="80" x2="200" y2="160"/>
    <line x1="320" y1="80" x2="440" y2="160"/>
    <line x1="200" y1="160" x2="140" y2="240"/>
    <line x1="200" y1="160" x2="260" y2="240"/>
    <line x1="440" y1="160" x2="380" y2="240"/>
    <line x1="440" y1="160" x2="500" y2="240"/>
  </g>
  <g font-family="Segoe UI, Roboto, Arial" font-size="18" font-weight="700" text-anchor="middle" dominant-baseline="central">
    <g>
      <circle cx="320" cy="80" r="28" fill="#1f2937" stroke="#22d3ee" stroke-width="3"/>
      <text x="320" y="80" fill="#e5e7eb">8</text>
    </g>
    <g>
      <circle cx="200" cy="160" r="26" fill="#1f2937" stroke="#263043" stroke-width="3"/>
      <text x="200" y="160" fill="#e5e7eb">12</text>
    </g>
    <g>
      <circle cx="440" cy="160" r="26" fill="#1f2937" stroke="#263043" stroke-width="3"/>
      <text x="440" y="160" fill="#e5e7eb">15</text>
    </g>
    <g>
      <circle cx="140" cy="240" r="24" fill="#1f2937" stroke="#a78bfa" stroke-width="3"/>
      <text x="140" y="240" fill="#e5e7eb">20</text>
    </g>
    <g>
      <circle cx="260" cy="240" r="24" fill="#1f2937" stroke="#263043" stroke-width="3"/>
      <text x="260" y="240" fill="#e5e7eb">22</text>
    </g>
    <g>
      <circle cx="380" cy="240" r="24" fill="#1f2937" stroke="#263043" stroke-width="3"/>
      <text x="380" y="240" fill="#e5e7eb">30</text>
    </g>
    <g>
      <circle cx="500" cy="240" r="24" fill="#1f2937" stroke="#263043" stroke-width="3"/>
      <text x="500" y="240" fill="#e5e7eb">40</text>
    </g>
  </g>
  <text x="320" y="324" fill="#94a3b8" font-family="Segoe UI, Roboto, Arial" font-size="16" text-anchor="middle">Heap Visualizer</text>
</svg>
